<?xml version="1.0" encoding="utf-8"?>
<svg version="1.1" id="svg2" width="2666.6667" height="2666.6667" viewBox="655.346 7.756 2007.443 2561.967" xmlns="http://www.w3.org/2000/svg">
  <g id="g10" transform="matrix(1.3333333,0,0,-1.3333333,0,2666.6667)">
    <g id="g12" transform="scale(0.1)">
      <path d="M 20000 19912.747 L 20000 0 L 4915.094 0 L 4915.094 19912.747 L 20000 19912.747" style="fill: rgb(242, 250, 234); fill-opacity: 1; fill-rule: nonzero; stroke: none;" id="path14"/>
      <path d="M 20000,7767.3 V 0 H 6931.7 c -321.5,434.699 -577.9,910.102 -743.3,1423 -122.8,380.6 -176.3,773.3 -151.5,1162.4 h 0.1 c 17.8,277.7 75.5,553.5 176.6,821.8 264.5,702.3 801.6,1272.2 1342.4,1772.3 774.4,716.2 1597,1383.3 2410.8,2060.5 154.3,128.4 308.2,257.1 461.5,386.7 272.8,230.5 543.4,463.4 809.5,701 584.8,522.1 1193.7,1118.3 1909.5,1475 95.5,47.6 192.9,90.9 292.4,129.3 45.1,17.3 90.7,33.7 136.7,48.9 0.1,0.1 0.1,0.1 0.2,0.1 118.9,39.4 240.8,71.5 366,94.9 0.1,0 0.1,0 0.2,0 11.3,2.2 22.7,4.3 34.1,6.3 85.2,14.9 171,25.8 257.1,33.1 6.4,0.5 12.8,1 19.2,1.5 0.1,0 0.2,0 0.2,0 0.6,0.1 1.3,0.1 1.9,0.2 14.3,1.1 28.6,2.1 42.9,3 13.8,0.9 27.7,1.7 41.5,2.5 3.1,0.2 6.3,0.3 9.4,0.4 24,1.2 48,2.1 72,2.6 342.6,8.9 687.7,-35 1023.1,-109.5 h 0.1 c 35.2,-7.8 70.2,-16 105.2,-24.5 20.4,-4.9 40.8,-9.9 61.1,-15.1 3.7,-0.9 7.3,-1.8 11,-2.8 70.2,-17.9 139.9,-37 208.9,-57.1 3.9,-1.1 7.9,-2.2 11.8,-3.4 0.8,-0.2 1.7,-0.5 2.5,-0.7 37.1,-10.9 74.1,-22.1 111,-33.5 73,-22.6 145.6,-46.1 217.9,-70.7 18.8,-6.3 37.6,-12.8 56.4,-19.4 0.1,0.1 0.2,0.1 0.2,0 9.3,-3.2 18.6,-6.4 27.8,-9.7 29.4,-10.3 58.8,-20.8 88.1,-31.4 27.9,-10.1 55.8,-20.4 83.6,-30.8 0,0 0,0 0.1,0 875.2,-327.2 1697.5,-787 2498.5,-1277.6 19.6,-12 39.2,-24 58.8,-36.1 1,-0.6 2.1,-1.2 3.1,-1.8 1.9,-1.2 3.7,-2.4 5.6,-3.5 1.1,-0.7 2.3,-1.4 3.4,-2.2 262.1,-161.3 522,-325.6 780.8,-489.4 11.5,-7.2 23,-14.5 34.5,-21.8 31.1,-19.6 62.3,-39.3 93.4,-59 30.7,-19.4 61.4,-38.8 92,-58.2" style="fill:#43ac67;fill-opacity:1;fill-rule:nonzero;stroke:none" id="path16"/>
      <path d="M 5752,89.6016 C 5711.5,100 5671.4,110.5 5631.9,121.102 5658.1,80.5 5684.9,40.1992 5712.6,0 h 100.6 c -20.7,29.6992 -41.1,59.6016 -61.2,89.6016 z M 19390.1,7628.2 c -148.1,92.9 -299,188.4 -445,280.7 -803.6,508.4 -1624.6,1027.7 -2489.7,1447.8 0,0.1 0,0.1 0,0.1 -62.6,30.4 -125.3,60.2 -188.3,89.5 -90.4,42 -181.3,82.9 -272.7,122.5 -28.9,12.5 -57.7,24.9 -86.7,37.1 -0.1,0 -0.2,0.1 -0.3,0.1 -33.9,14.4 -67.9,28.5 -102,42.5 -65.4,26.8 -131.1,53 -197.1,78.3 -225.1,86.8 -453.5,165.1 -685.6,233.1 -169.2,49.6 -332.8,90.7 -491.3,123.3 -26,5.4 -51.8,10.6 -77.5,15.4 -33.1,6.4 -65.9,12.3 -98.6,17.9 -0.6,0.1 -1.2,0.2 -1.9,0.3 0,0 -0.1,0 -0.2,0 -111,18.9 -219.6,33.5 -325.7,43.6 h -0.1 c -57.2,5.6 -113.8,9.9 -169.6,12.9 -263.1,14.2 -511.4,0.5 -747.6,-40.7 -455.4,-79.5 -908.5,-276.8 -1385.2,-603.1 -411.2,-281.5 -788.7,-621.5 -1153.8,-951.8 h -0.1 c -7,-6.4 -13.9,-12.7 -20.9,-19 -79.3,-71.7 -161.2,-145.9 -241,-217.1 C 9657.3,7848.8 9076.8,7367.9 8515.5,6902.7 7834.2,6338.2 7129.8,5754.4 6470.9,5145.1 5947.5,4661.1 5375.1,4067 5097.5,3330.2 c -129,-342.6 -191.7,-703.8 -187.7,-1072 27.1,9.9 54.6,19.9 82.5,29.8 -0.3,348.1 60.6,689.2 182.5,1013 271.5,720.8 835.9,1306 1352.2,1783.5 657.2,607.7 1360.8,1190.8 2041.2,1754.6 561.9,465.6 1142.9,947.1 1696,1440.9 64.7,57.7 130.8,117.4 195.6,176.1 15.4,13.8 30.6,27.7 45.8,41.4 750.1,678.6 1525.7,1380.4 2518.8,1553.7 171.3,29.9 349.3,44.9 535.2,44.9 16.7,0 33.5,-0.1 50.3,-0.4 55,-0.8 110.8,-2.9 167.2,-6.3 54.5,-3.2 109.6,-7.7 165.5,-13.5 0.1,0.1 0.1,0.1 0.2,0 105.3,-10.7 213,-25.7 323.3,-45.1 34.8,-6.1 70,-12.7 105.3,-19.7 26.9,-5.3 53.9,-10.8 81.1,-16.7 144.5,-30.8 293.4,-68.8 447,-113.8 247.4,-72.5 490.7,-156.8 730.3,-250.6 10.7,-4.3 21.4,-8.5 32,-12.7 42.8,-16.9 85.4,-34.2 127.9,-51.7 0.1,0 0.2,-0.1 0.3,-0.1 35.9,-14.8 71.7,-29.8 107.5,-45 116.9,-49.8 233,-101.7 348.2,-155.5 70.8,-32.9 141.2,-66.6 211.3,-101.1 847.6,-415 1654.2,-925.3 2443.9,-1424.8 146,-92.4 297.1,-187.9 445.3,-280.9 215.6,-135.3 433.8,-269.9 653.8,-403.4 v 96.7 c -205.1,124.8 -408.6,250.4 -609.9,376.7" style="fill:#43ac67;fill-opacity:1;fill-rule:nonzero;stroke:none" id="path18"/>
      <path d="m 19735.1,8691.3 c -156.1,98.4 -313.3,195.7 -471.5,291.2 -872,526.4 -1778.6,999.7 -2750.1,1291.3 -318.4,95.6 -617.2,160.7 -899.5,195.6 -370.1,46 -711.7,40 -1031.4,-17.1 -139.7,-25 -279.2,-61.2 -419.3,-109.1 -134.5,-45.8 -269.4,-102.4 -405.5,-169.9 -49.1,-24.4 -98.4,-50.2 -147.9,-77.6 -61.1,-33.6 -122.4,-69.4 -184.1,-107.7 -80,-49.2 -160.5,-102.4 -241.7,-159.3 -12.3,-8.6 -24.5,-17.3 -36.8,-26 -408.7,-291.5 -784.9,-640.2 -1149.1,-977.7 -80,-74.2 -162.8,-150.8 -243.3,-224.5 -557.2,-509.5 -1143.1,-1006.8 -1709.7,-1487.7 -44.4,-37.7 -89,-75.5 -133.6,-113.4 C 9265.8,6451 8603.4,5884.9 7981.3,5295.6 7495.7,4835.7 6968.4,4279.7 6668.7,3601.4 c -26.5,-59.8 -51.1,-120.5 -73.8,-182.2 -5,-13.5 -9.8,-27 -14.6,-40.5 C 6351.1,2727.3 6346.9,2012.6 6568.5,1308.8 6710,859.398 6922.3,419.699 7200.1,0 h 101.8 c -287.3,425.801 -508.3,873.699 -653.5,1334.7 -200.8,637.7 -211.5,1284 -32.7,1881 17.4,58.5 36.8,116.4 57.9,173.9 48.1,130.7 105.2,257.1 169.7,379.3 302.7,574.7 765.5,1057.6 1195.3,1464.7 590.2,559 1217.4,1097.8 1832.3,1620.4 76.3,64.8 152.4,129.4 228.2,193.7 350.4,297.4 708.3,601.1 1062.2,910.2 116,101.3 231.6,203.2 346.4,305.6 101.9,90.9 203.1,182.2 303.4,273.9 7.6,7 15.2,13.9 22.9,21 73.4,67.3 148.2,136.7 220.8,203.9 73.6,68.2 147.4,136.6 221.6,204.7 372.4,341.6 755.4,675.8 1171.4,936.4 42.5,26.7 85.4,52.5 128.6,77.5 0.1,0.1 0.1,0.1 0.2,0.1 65.9,38.2 132.7,74.5 200.5,108.4 49.6,25 99.6,48.7 150.3,71 h 0.1 c 175.1,77.8 356.6,140.1 546,183 40.9,9.4 82.1,17.8 123.7,25.2 172.9,31 352.5,46.5 540.1,46.5 157.2,0 320,-10.9 489,-32.9 5.8,-0.6 11.6,-1.4 17.4,-2.3 h 0.1 c 90.6,-12 182.9,-27.2 277.1,-45.6 0.1,0.1 0.1,0 0.2,0 182.2,-35.6 371.5,-82.8 568.5,-142 967.4,-290.3 1872.2,-763.6 2743.2,-1290.1 159.7,-96.6 318.2,-194.9 475.8,-294.1 97.5,-61.5 194.6,-123.3 291.4,-185.3 v 100.3 c -88,56.5 -176.3,112.5 -264.9,168.2" style="fill:#43ac67;fill-opacity:1;fill-rule:nonzero;stroke:none" id="path20"/>
      <path d="M 5752,89.6016 C 5711.5,100 5671.4,110.5 5631.9,121.102 c -243.5,376 -431.6,767.699 -560.6,1167.498 -104.3,323.3 -158.1,649.1 -161.5,969.6 27.1,9.9 54.6,19.9 82.5,29.8 0.3,-321.5 52.8,-649 157.7,-974.1 C 5286.1,892 5489.4,481.402 5752,89.6016" style="fill:#43ac67;fill-opacity:1;fill-rule:nonzero;stroke:none" id="path108"/>
      <path d="M 8584.87 11716.969 C 8584.87 11716.969 7809.354 11023.911 7693.823 10314.361 C 7578.332 9604.811 8139.342 9109.818 8848.884 8812.804 C 8848.884 8812.804 8716.886 8350.793 8782.901 8185.794 C 8848.884 8020.796 9360.419 7921.765 9640.916 7987.813 C 9921.422 8053.779 10515.448 10000.857 10515.448 10083.397 C 10515.448 10165.855 9244.913 11964.507 9244.913 11964.507 L 8584.87 11716.969 L 8584.87 11716.969" style="fill: rgb(208, 141, 89); fill-opacity: 1; fill-rule: nonzero; stroke: none;" id="path110"/>
      <path d="M 8585.404 11716.558 L 8585.404 11716.558 C 8585.404 11716.558 8545.504 11681.277 8483.328 11617.937 C 8720.339 11467.79 8980.833 11274.157 9057.105 11109.897 C 9103.068 11010.701 9075.386 10974.846 9010.543 10974.846 C 8999.976 10974.846 8988.447 10975.831 8976.074 10977.636 C 9068.239 10935.463 9156.113 10886.316 9242.476 10834.708 C 9389.965 10742.24 9533.056 10642.635 9657.424 10512.424 C 9484.796 10563.704 9330.874 10645.588 9181.317 10734.61 C 9041.713 10821.827 8906.154 10915.689 8786.749 11035.972 C 8645.381 11093.324 8492.28 11175.043 8425.837 11207.288 C 9349.261 10536.054 9734.106 9967.053 9148.621 9387.385 C 9031.178 9271.369 8891.771 9225.012 8743.871 9225.012 C 8424.007 9225.012 8064.523 9441.864 7802.127 9640.666 C 7847.736 9554.845 7904.891 9473.864 7971.637 9397.805 C 8167.141 9175.784 8444.224 8994.704 8756.261 8853.089 C 8763.866 8849.643 8771.439 8846.28 8779.078 8842.915 C 8818.649 8845.787 8859.788 8847.92 8902.535 8847.92 C 8911.741 8847.92 8921.021 8847.757 8930.374 8847.592 C 9322.284 8840.536 9309.378 8670.369 9131.039 8481.494 C 9034.837 8378.279 8883.525 8348.905 8765.023 8345.378 C 8764.112 8321.338 8764.187 8298.2 8765.507 8276.621 C 8766.467 8261.032 8768.075 8246.346 8770.373 8232.562 C 8773.302 8215.249 8777.42 8199.496 8782.901 8185.794 C 8834.788 8056.077 9162.167 7967.137 9436.076 7967.137 C 9450.45 7967.137 9464.694 7967.383 9478.724 7967.876 C 9595.191 8875.652 9811.231 9624.585 9920.683 9965.822 C 9920.683 9965.822 9921.914 9971.648 9925.441 9981.083 C 9964.169 10099.56 9987.635 10165.281 9987.635 10165.281 L 9982.958 10171.188 L 9657.884 10512.589 C 9426.73 11172.089 8585.404 11716.558 8585.404 11716.558 L 8585.404 11716.558" style="fill: rgb(202, 128, 79); fill-opacity: 1; fill-rule: nonzero; stroke: none;" id="path112"/>
      <path d="M 9657.424 10512.424 C 9484.796 10563.704 9330.874 10645.588 9181.317 10734.61 C 9033.705 10826.832 8890.629 10926.438 8766.369 11056.894 C 8939.161 11005.86 9093.083 10923.976 9242.476 10834.708 C 9389.965 10742.24 9533.056 10642.635 9657.424 10512.424 L 9657.424 10512.424" style="fill: rgb(184, 112, 67); fill-opacity: 1; fill-rule: nonzero; stroke: none;" id="path114"/>
      <path d="M 8848.884 8812.804 C 8967.714 8861.704 9089.062 8889.354 9216.254 8901.826 C 9250.59 8904.369 9276.296 8907.569 9324.072 8899.856 C 9332.639 8897.641 9341.229 8894.687 9349.319 8891.242 C 9359.255 8885.252 9370.118 8875.652 9377.387 8866.463 C 9387.528 8851.038 9393.41 8835.449 9395.528 8824.7 C 9400.886 8800.907 9400.443 8782.692 9400.22 8764.559 C 9397.94 8693.835 9382.4 8633.365 9363.652 8570.599 L 9359.55 8556.897 L 9354.331 8551.481 C 9288.546 8483.874 9220.109 8418.318 9140.4 8361.787 C 9178.044 8451.958 9226.936 8533.103 9278.478 8612.114 L 9269.182 8593.08 C 9277.001 8650.842 9284.082 8712.705 9284.747 8765.709 C 9284.607 8778.426 9283.237 8791.308 9281.506 8797.625 C 9280.891 8802.302 9280.39 8800.743 9282.852 8798.856 C 9284.697 8795 9289.851 8790.815 9293.887 8789.666 L 9297.005 8787.943 C 9283.951 8791.882 9247.169 8790.979 9219.905 8792.702 C 9100 8794.589 8975.41 8794.097 8848.884 8812.804" style="fill: rgb(184, 112, 67); fill-opacity: 1; fill-rule: nonzero; stroke: none;" id="path116"/>
      <path d="M 9832.072 5961.642 C 9832.072 5961.642 8748.507 2345.138 11175.522 437.69 L 11846.099 554.936 C 11846.099 554.936 12587.647 -98.985 14364.229 -13.245 C 14364.229 -13.245 14657.796 953.771 14595.522 1895.187 C 14533.33 2836.525 13693.652 7380.249 13693.652 7380.249 L 13212.77 6439.981 L 11447.182 6566.99 L 9832.072 5961.642 L 9832.072 5961.642" style="fill: rgb(180, 171, 154); fill-opacity: 1; fill-rule: nonzero; stroke: none;" id="path118"/>
      <path d="M 9680.857 5242.739 C 9663.487 5130.825 9647.037 5008.247 9633.106 4877.133 C 9776.197 4765.22 9959.082 4643.051 10132.285 4591.197 C 10060.247 4047.468 9822.472 3636.245 9632.031 3382.47 C 9642.819 3287.131 9655.701 3190.804 9672.94 3094.482 C 9687.914 3102.193 9703.338 3110.562 9719.173 3119.587 C 9798.268 3174.889 9861.281 3244.056 9921.996 3315.107 C 9992.475 3400.767 10059.097 3490.526 10120.059 3585.044 C 10213.922 3723.625 10300.892 3867.289 10393.607 4011.12 C 10426.508 4398.138 10466.63 4730.925 10497.233 4959.591 C 10116.038 5066.008 9831.907 5177.921 9680.857 5242.739 Z M 14048.017 4900.928 C 13487.138 4746.924 12940.125 4688.178 12431.757 4688.178 C 12090.438 4688.178 11766.595 4714.597 11467.695 4756.606 C 11464.331 4504.718 11476.392 4214.105 11498.873 3903.884 C 11555.158 3828.236 11613.74 3754.72 11675.932 3683.996 C 11726.146 3622.377 11780.789 3564.37 11832.808 3504.557 L 11999.2 3334.388 C 12226.966 3114.006 12474.012 2914.551 12740.748 2746.6 C 12870.385 2656.1 13013.311 2588.738 13151.562 2512.843 C 13296.623 2451.554 13438.319 2380.501 13589.698 2334.307 C 13886.546 2221.41 14201.611 2172.755 14518.725 2122.706 C 14438.729 2124.019 14358.404 2126.398 14277.997 2130.172 C 14237.957 2131.896 14197.672 2132.881 14157.55 2135.424 C 14287.596 2112.04 14413.13 2099.487 14531.442 2099.487 C 14546.539 2099.487 14561.636 2099.651 14576.486 2100.061 C 14574.353 2119.588 14572.056 2139.526 14569.595 2160.284 C 13916.494 2291.971 12873.256 2715.911 11865.544 4219.358 C 12154.271 4159.627 12413.788 4134.438 12646.311 4134.438 C 13364.886 4134.438 13825.503 4375.33 14089.041 4583.648 C 14066.314 4715.745 14052.529 4852.602 14048.017 4900.928 Z M 11503.222 3845.876 C 11529.395 3501.439 11568.039 3134.602 11612.345 2771.787 C 11625.882 2744.874 11639.749 2718.126 11653.943 2691.543 C 11733.283 2537.704 11820.5 2388.213 11917.234 2245.531 C 12110.457 1960.744 12331.822 1694.417 12594.704 1475.759 C 12853.811 1252.999 13154.106 1080.863 13476.635 966.57 C 13638.188 910.368 13805.401 866.718 13976.389 843.991 C 14146.638 811.91 14320.334 808.382 14494.931 801.572 C 14387.942 788.526 14279.72 781.552 14171.253 781.142 C 14331.575 762.845 14458.092 758.908 14532.181 758.743 C 14545.719 845.14 14558.273 936.377 14569.02 1031.142 C 13234.266 1098.011 12252.072 2137.967 11824.767 3399.536 C 11706.536 3540.412 11597.576 3688.998 11503.222 3845.876 Z M 10377.936 3814.615 C 10340.111 3728.548 10294.903 3645.923 10245.018 3565.763 C 10214.496 3107.116 9992.393 2768.178 9792.361 2550.668 C 9827.887 2424.314 9868.747 2298.945 9916.089 2174.725 C 9919.37 2177.187 9922.734 2179.729 9926.18 2182.355 C 9922.16 2182.438 9918.139 2182.519 9914.201 2182.847 C 9929.709 2190.149 9944.23 2198.436 9957.85 2207.461 C 9981.726 2226.907 10006.751 2248.567 10032.432 2272.362 C 10060.247 2302.883 10083.958 2336.687 10106.603 2371.065 C 10153.863 2447.041 10196.2 2527.284 10233.531 2611.221 C 10268.402 2687.115 10301.057 2764.403 10334.204 2842.596 C 10338.306 3178.498 10355.291 3509.807 10377.936 3814.615 Z M 11634.006 2597.519 C 11722.863 1899.947 11829.034 1232.488 11904.599 783.193 C 11924.701 663.568 11942.67 559.449 11957.603 474.366 C 12091.997 387.559 12351.185 247.093 12752.809 137.888 C 13084.037 47.963 13512.245 -20.793 14047.442 -20.793 C 14149.182 -20.793 14254.777 -18.249 14364.393 -12.998 C 14365.378 -9.635 14374.649 21.297 14389.007 75.038 C 14359.634 73.726 14330.098 73.069 14300.56 73.069 C 13404.68 73.069 12451.366 669.639 12048.675 1889.527 C 11974.176 1988.64 11905.338 2091.856 11842.325 2198.109 C 11765.692 2327.415 11695.542 2460.661 11634.006 2597.519 Z M 10334.04 2553.129 C 10314.923 2513.254 10293.837 2473.953 10269.96 2436.129 C 10252.567 2137.639 10187.749 1912.171 10105.455 1742.743 C 10206.784 1542.874 10326.327 1347.764 10466.957 1160.367 C 10458.588 1199.094 10450.712 1238.395 10443.246 1278.27 C 10443.246 1278.024 10443.246 1277.859 10443.246 1277.614 C 10407.637 1467.637 10382.038 1669.639 10364.561 1878.204 C 10364.48 1878.449 10364.48 1878.778 10364.48 1879.025 C 10364.48 1879.107 10364.48 1879.434 10364.398 1879.517 C 10346.019 2099.077 10336.666 2325.856 10334.04 2553.129 L 10334.04 2553.129" style="fill: rgb(168, 159, 141); fill-opacity: 1; fill-rule: nonzero; stroke: none;" id="path120"/>
      <path d="M 11384.58 4064.041 C 11475.49 3931.78 11570.665 3803.785 11675.932 3683.996 C 11726.146 3622.377 11780.789 3564.37 11832.808 3504.557 L 11999.2 3334.388 C 12226.966 3114.006 12474.012 2914.551 12740.748 2746.6 C 12870.385 2656.1 13013.311 2588.738 13151.562 2512.843 C 13296.623 2451.554 13438.319 2380.501 13589.698 2334.307 C 13886.546 2221.41 14201.611 2172.755 14518.725 2122.706 C 14438.729 2124.019 14358.404 2126.398 14277.997 2130.172 C 14197.59 2133.537 14116.445 2134.439 14037.105 2149.453 L 13797.935 2189.329 C 13718.185 2202.949 13641.47 2229.697 13562.786 2249.388 C 13403.531 2284.423 13256.994 2356.624 13104.795 2413.648 C 12960.883 2488.558 12813.033 2557.56 12678.474 2649.042 C 12405.337 2824.461 12152.795 3032.7 11935.531 3272.689 C 11718.515 3512.186 11525.292 3774.822 11384.58 4064.041 L 11384.58 4064.041" style="fill: rgb(142, 129, 110); fill-opacity: 1; fill-rule: nonzero; stroke: none;" id="path122"/>
      <path d="M 10492.392 4159.956 C 10469.747 4044.675 10430.364 3934.652 10383.761 3827.99 C 10337.814 3720.833 10280.217 3619.015 10216.219 3520.637 C 10150.991 3423.411 10076.082 3330.696 9986.485 3251.851 C 9898.366 3174.069 9792.032 3103.177 9672.989 3090.049 C 9774.555 3148.96 9849.876 3230.764 9921.996 3315.107 C 9992.475 3400.767 10059.097 3490.526 10120.059 3585.044 C 10246.413 3771.456 10360.131 3967.304 10492.392 4159.956 L 10492.392 4159.956" style="fill: rgb(142, 129, 110); fill-opacity: 1; fill-rule: nonzero; stroke: none;" id="path124"/>
      <path d="M 10544.985 5287.783 C 10544.985 5287.783 10012.576 2050.176 10636.223 612.698 C 10636.223 612.698 10632.12 532.948 10792.934 429.322 L 10927.738 -17.019 C 10927.738 -17.019 11321.813 -107.846 11558.768 -23.173 C 11795.722 61.501 11694.967 362.206 11694.967 362.206 C 11694.967 362.206 11941.111 302.476 12003.221 219.525 C 12003.221 219.525 11372.602 3616.717 11478.935 5035.24 C 11585.27 6453.764 10544.985 5287.783 10544.985 5287.783 L 10544.985 5287.783" style="fill: rgb(209, 197, 179); fill-opacity: 1; fill-rule: nonzero; stroke: none;" id="path126"/>
      <path d="M 11498.627 3904.21 C 11500.022 3885.013 11501.416 3865.732 11502.893 3846.367 C 11502.975 3846.203 11503.139 3846.04 11503.222 3845.876 C 11501.745 3865.321 11500.268 3884.603 11498.873 3903.884 C 11498.791 3903.964 11498.709 3904.131 11498.627 3904.21 L 11498.627 3904.21" style="fill: rgb(114, 101, 83); fill-opacity: 1; fill-rule: nonzero; stroke: none;" id="path128"/>
      <path d="M 10497.725 4959.428 C 10416.498 4354.489 10269.058 3020.309 10364.398 1879.517 C 10364.48 1879.434 10364.48 1879.107 10364.48 1879.025 C 10364.48 1878.696 10364.48 1878.532 10364.561 1878.204 C 10382.038 1669.884 10407.637 1468.047 10443.246 1278.27 C 10422.816 2157.659 10441.113 3426.201 10658.457 4371.638 C 10787.191 4335.043 10866.12 4304.932 10900.17 4290.984 C 10936.107 4467.633 10976.967 4643.216 11024.636 4816.992 C 10962.198 4454.178 10910.016 4090.542 10867.925 3725.84 C 10826.081 3361.218 10791.21 2995.861 10773.077 2629.515 C 10746.412 2263.664 10741.326 1896.746 10743.541 1530.074 L 10746.495 1254.804 L 10759.212 979.862 C 10759.622 936.294 10761.345 892.973 10763.725 849.57 C 10789.651 584.883 10829.773 334.966 10888.355 113.519 L 10927.738 -17.019 C 10927.738 -17.019 10965.644 -25.716 11025.047 -35.234 C 11037.764 -37.203 11051.548 -39.09 11066.153 -40.977 C 11011.263 316.423 10818.697 1835.949 11091.998 3996.677 C 11216.792 1662.992 11492.227 465.586 11622.437 9.81 C 11625.308 11.944 11628.099 14.077 11630.888 16.211 C 11691.931 65.193 11712.279 136.082 11715.726 200.982 C 11719.992 286.723 11694.475 361.96 11694.475 361.96 C 11694.475 361.96 11694.721 361.96 11695.049 361.877 C 11694.967 362.124 11694.967 362.206 11694.967 362.206 C 11694.967 362.206 11704.895 359.827 11721.304 355.314 C 11671.912 582.012 11602.581 924.726 11531.281 1357.939 C 11578.131 1025.07 11631.216 693.023 11694.967 362.206 C 11588.223 726.826 11513.068 1099.98 11448.003 1474.2 C 11383.76 1848.831 11337.403 2226.25 11298.102 2604.246 C 11267.826 2982.976 11238.289 3362.042 11232.218 3742.086 C 11226.474 3931.86 11228.935 4121.884 11228.771 4311.742 C 11232.053 4471.653 11237.796 4631.564 11245.182 4791.312 C 10968.516 4838.817 10717.039 4898.22 10497.725 4959.428 Z M 11253.14 4789.916 C 11262.657 4547.63 11270.452 4305.752 11281.692 4064.041 C 11384.663 4064.041 11384.663 4064.041 11384.663 4064.041 C 11384.663 4064.041 11497.56 1871.147 11948.413 526.712 C 11935.531 600.965 11920.763 687.115 11904.599 783.193 C 11828.869 1232.57 11722.618 1900.356 11633.76 2598.093 C 11626.375 2655.936 11619.155 2714.023 11612.017 2772.28 C 11567.711 3135.176 11529.148 3501.85 11502.893 3846.367 C 11501.416 3865.732 11500.022 3885.013 11498.627 3904.21 C 11476.064 4214.351 11464.085 4504.965 11467.448 4756.606 C 11394.509 4766.861 11322.962 4778.02 11253.14 4789.916 L 11253.14 4789.916" style="fill: rgb(194, 178, 158); fill-opacity: 1; fill-rule: nonzero; stroke: none;" id="path130"/>
      <path d="M 11694.967 362.206 C 11588.223 726.826 11513.068 1099.98 11448.003 1474.2 C 11383.76 1848.831 11337.403 2226.25 11298.102 2604.246 C 11267.826 2982.976 11238.289 3362.042 11232.218 3742.086 C 11226.474 3931.86 11228.935 4121.884 11228.771 4311.742 C 11232.71 4501.6 11240.012 4691.378 11249.448 4880.908 C 11265.119 4501.437 11275.129 4122.788 11299.005 3744.711 C 11318.779 3366.551 11347.494 2989.051 11384.498 2612.368 C 11416.414 2235.194 11463.838 1859.579 11513.724 1484.374 C 11564.922 1109.169 11623.093 734.868 11694.967 362.206 L 11694.967 362.206" style="fill: rgb(168, 159, 141); fill-opacity: 1; fill-rule: nonzero; stroke: none;" id="path132"/>
      <path d="M 11024.636 4816.992 C 10962.198 4454.178 10910.016 4090.542 10867.925 3725.84 C 10826.081 3361.218 10791.21 2995.861 10773.077 2629.515 C 10746.412 2263.664 10741.326 1896.746 10743.541 1530.074 L 10746.495 1254.804 L 10759.212 979.862 C 10761.016 795.747 10784.975 613.6 10792.934 429.322 C 10732.71 792.301 10689.061 1159.547 10676.754 1528.27 C 10660.672 1896.911 10666.497 2266.29 10686.518 2634.605 C 10712.035 3002.589 10745.756 3370.246 10802.041 3734.701 C 10858.079 4098.994 10927.164 4461.726 11024.636 4816.992 L 11024.636 4816.992" style="fill: rgb(168, 159, 141); fill-opacity: 1; fill-rule: nonzero; stroke: none;" id="path134"/>
      <path d="M 15795.881 9209.012 L 15651.559 8658.635 L 14723.353 5132.631 C 12099.709 4043.776 9558.146 5298.039 9558.146 5298.039 C 9521.759 5454.176 9492.434 5612.529 9470.142 5772.111 C 9213.185 7529.904 9729.429 9369.744 9920.683 9965.822 C 9920.683 9965.822 9921.914 9971.648 9925.441 9981.083 C 9964.169 10099.56 9987.635 10165.281 9987.635 10165.281 L 9982.958 10171.188 L 9657.884 10512.589 C 9426.73 11172.089 8585.404 11716.558 8585.404 11716.558 C 8639.383 11777.52 8695.701 11837.414 8754.341 11894.848 C 9192.066 12329.046 9723.604 12662.242 10224.588 12909.862 C 11126.95 13358.089 11934.301 13531.785 11934.301 13531.785 C 11934.301 13531.785 13039.566 14109.073 14013.474 13202.034 C 14560.324 12692.763 14904.104 12114.327 15100.034 11705.975 C 15253.791 11386.809 15317.133 11172.089 15317.133 11172.089 L 15795.881 9209.012 L 15795.881 9209.012" style="fill: rgb(219, 202, 183); fill-opacity: 1; fill-rule: nonzero; stroke: none;" id="path136"/>
      <path d="M 8754.341 11894.848 L 8754.341 11894.848 C 8695.701 11837.414 8639.383 11777.52 8585.404 11716.558 C 8585.404 11716.558 9426.73 11172.089 9657.884 10512.589 L 9982.958 10171.188 C 10107.26 10576.012 10399.432 11475.994 10632.94 11846.768 C 10252.32 11669.298 9925.114 11599.558 9645.799 11599.558 C 9263.759 11599.558 8971.242 11730.178 8754.341 11894.848 L 8754.341 11894.848" style="fill: rgb(205, 184, 160); fill-opacity: 1; fill-rule: nonzero; stroke: none;" id="path138"/>
      <path d="M 10561.312 13067.066 C 10451.533 13018.904 10338.881 12966.558 10224.588 12909.862 C 10437.666 12631.884 10798.841 12238.957 11323.127 11919.709 L 11325.506 12007.171 C 11325.506 12007.171 11024.965 12321.497 10993.541 12783.016 C 10824.522 12868.674 10678.149 12964.999 10561.312 13067.066 Z M 14330.098 12876.058 C 14203.333 12798.36 14073.124 12731.654 13940.37 12675.124 C 13622.025 12374.008 12919.448 11864.327 11810.819 11864.327 C 11805.076 11864.327 11799.332 11864.327 11793.589 11864.327 L 11721.551 11708.518 C 12162.23 11507.993 12692.341 11370.645 13317.463 11370.645 C 13843.225 11370.645 14436.267 11467.707 15100.034 11705.975 C 14945.045 12028.996 14697.507 12458.517 14330.098 12876.058 L 14330.098 12876.058" style="fill: rgb(205, 184, 160); fill-opacity: 1; fill-rule: nonzero; stroke: none;" id="path140"/>
      <path d="M 14607.254 10396.491 L 13436.186 10111.375 L 13688.483 8847.592 C 13688.483 8847.592 13398.526 5632.22 10563.282 5632.22 C 10234.352 5632.22 9871.044 5675.541 9470.142 5772.111 C 9492.434 5612.529 9521.759 5454.176 9558.146 5298.039 C 9558.146 5298.039 10794 4688.178 12431.757 4688.178 C 12940.125 4688.178 13487.138 4746.924 14048.017 4900.928 C 14047.114 4910.61 14046.54 4916.763 14046.375 4918.568 L 14003.219 4898.876 L 13956.041 4876.806 C 13956.041 4876.806 13858.732 4890.671 13764.869 4919.224 C 13679.458 4944.987 13596.753 4983.057 13592.816 5034.173 C 13591.42 5052.552 13593.144 5082.171 13597.082 5118.601 C 13601.103 5157.819 13607.831 5204.997 13615.625 5254.39 C 13642.618 5426.69 13683.643 5628.2 13683.643 5628.2 L 14244.603 5941.704 L 13841.502 8464.922 C 13841.339 8464.922 13841.174 8465.003 13841.01 8465.085 L 13798.755 8730.264 C 13798.837 8730.181 13799.002 8730.181 13799.166 8730.181 L 13799.084 8730.346 C 14062.293 8678.82 14293.094 8657.405 14494.931 8657.405 C 14681.344 8657.405 14843.06 8675.702 14982.705 8705.239 L 14607.254 10396.491 L 14607.254 10396.491" style="fill: rgb(205, 184, 160); fill-opacity: 1; fill-rule: nonzero; stroke: none;" id="path142"/>
      <path d="M 13799.084 8730.346 L 14244.603 5941.704 L 13683.643 5628.2 C 13683.643 5628.2 13584.611 5141.41 13592.816 5034.173 C 13601.103 4926.937 13955.877 4877.38 13955.877 4877.38 L 14046.622 4918.65 C 14046.622 4918.65 14096.097 4335.619 14189.632 4291.64 C 14283.166 4247.581 14409.602 4258.657 14409.602 4258.657 L 14547.113 4610.642 C 14547.113 4610.642 15300.641 4731.663 15416.164 4825.197 C 15531.688 4918.65 15372.187 5798.695 15372.187 5798.695 C 15372.187 5798.695 16059.748 7701.794 15773.729 9164.871 C 15773.729 9164.871 15344.7 8427.753 13799.084 8730.346 L 13799.084 8730.346" style="fill: rgb(208, 141, 89); fill-opacity: 1; fill-rule: nonzero; stroke: none;" id="path144"/>
      <path d="M 15843.305 8372.863 C 15842.238 7757.833 15732.787 7137.715 15619.643 6660.279 C 15732.787 7137.715 15842.32 7757.915 15843.305 8372.863 Z M 15372.268 5799.023 C 15372.187 5798.777 15372.187 5798.695 15372.187 5798.695 C 15372.187 5798.695 15435.527 5449.253 15453.496 5167.337 C 15435.856 5446.382 15373.582 5791.639 15372.268 5799.023 Z M 15313.686 4777.528 C 15073.369 4695.152 14547.113 4610.642 14547.113 4610.642 L 14409.602 4258.657 C 14409.602 4258.657 14395.571 4257.427 14373.419 4257.427 C 14363.326 4257.427 14351.676 4257.672 14338.794 4258.411 C 14352.332 4257.59 14364.558 4257.345 14374.978 4257.345 C 14396.556 4257.345 14410.094 4258.493 14410.094 4258.493 L 14547.36 4610.478 C 14547.36 4610.478 15073.779 4694.988 15313.686 4777.528 Z M 14244.522 4272.277 C 14244.522 4272.113 14244.522 4272.359 14244.522 4272.195 C 14252.727 4270.144 14260.849 4268.339 14268.972 4266.78 C 14260.849 4268.339 14252.644 4270.144 14244.522 4272.277 L 14244.522 4272.277" style="fill: rgb(204, 204, 201); fill-opacity: 1; fill-rule: nonzero; stroke: none;" id="path146"/>
      <path d="M 14089.287 4583.895 C 14089.204 4583.813 14089.123 4583.731 14089.041 4583.648 C 14112.917 4445.07 14146.556 4311.742 14189.467 4291.313 C 14207.025 4283.189 14225.733 4276.954 14244.522 4272.195 C 14244.522 4272.359 14244.522 4272.113 14244.522 4272.277 C 14225.733 4277.117 14207.107 4283.436 14189.632 4291.64 C 14146.721 4311.824 14113.163 4445.235 14089.287 4583.895 L 14089.287 4583.895" style="fill: rgb(168, 159, 141); fill-opacity: 1; fill-rule: nonzero; stroke: none;" id="path148"/>
      <path d="M 14048.263 4900.928 C 14048.099 4900.928 14048.181 4900.928 14048.017 4900.928 C 14052.529 4852.602 14066.314 4715.745 14089.041 4583.648 C 14089.123 4583.731 14089.204 4583.813 14089.287 4583.895 C 14066.56 4716.156 14052.693 4853.176 14048.263 4900.928 L 14048.263 4900.928" style="fill: rgb(157, 147, 130); fill-opacity: 1; fill-rule: nonzero; stroke: none;" id="path150"/>
      <path d="M 15773.565 9164.379 C 15773.565 9164.379 15478.192 8657.241 14494.931 8657.241 C 14293.176 8657.241 14062.293 8678.656 13799.166 8730.181 L 13841.502 8464.922 C 14159.109 8358.751 14564.262 8247.084 14861.275 8247.084 C 14898.935 8247.084 14934.872 8248.889 14968.593 8252.663 C 14975.732 8253.484 14982.623 8253.895 14989.515 8253.895 C 15502.069 8253.73 15263.637 5979.364 14244.685 5942.279 C 14934.625 5835.453 15007.321 5884.763 15053.103 5529.25 C 15098.886 5172.506 15125.88 4962.546 14769.135 4843.986 C 14729.342 4830.695 14693.077 4824.705 14659.684 4824.705 C 14394.669 4824.705 14316.805 5205.243 14200.052 5372.046 C 14167.151 5419.552 14107.01 5437.274 14035.546 5437.274 C 13905.664 5437.274 13738.369 5378.692 13628.588 5333.32 C 13624.076 5306.9 13619.727 5280.399 13615.625 5254.39 C 13607.831 5204.915 13601.184 5157.819 13597.082 5118.601 C 13593.226 5082.007 13591.667 5052.306 13593.39 5034.091 C 13597.329 4983.222 13679.704 4945.152 13764.869 4919.224 C 13858.732 4890.918 13955.877 4877.38 13955.877 4877.38 L 14003.219 4898.876 L 14046.375 4919.06 C 14046.375 4919.06 14046.375 4918.896 14046.375 4918.568 L 14046.622 4918.65 C 14046.622 4918.65 14047.196 4912.332 14048.263 4900.928 L 14048.263 4900.928 C 14052.693 4853.176 14066.56 4716.156 14089.287 4583.895 C 14113.163 4445.235 14146.721 4311.824 14189.632 4291.64 C 14207.107 4283.436 14225.733 4277.117 14244.522 4272.277 C 14252.644 4270.144 14260.849 4268.339 14268.972 4266.78 C 14293.668 4262.103 14317.708 4259.56 14338.794 4258.411 C 14351.676 4257.672 14363.326 4257.427 14373.419 4257.427 C 14395.571 4257.427 14409.602 4258.657 14409.602 4258.657 L 14547.113 4610.642 C 14547.113 4610.642 15073.369 4695.152 15313.686 4777.528 C 15360.782 4793.691 15396.801 4809.773 15415.672 4825.197 C 15458.665 4859.903 15463.916 5002.011 15453.496 5167.337 C 15435.527 5449.253 15372.187 5798.695 15372.187 5798.695 C 15372.187 5798.695 15372.187 5798.777 15372.268 5799.023 C 15372.268 5799.105 15372.268 5799.105 15372.268 5799.105 C 15372.268 5799.105 15498.048 6147.316 15619.643 6660.279 C 15732.787 7137.715 15842.238 7757.833 15843.305 8372.863 C 15843.797 8641.816 15823.449 8909.784 15773.565 9164.379 L 15773.565 9164.379" style="fill: rgb(202, 128, 79); fill-opacity: 1; fill-rule: nonzero; stroke: none;" id="path152"/>
      <path d="M 10762.986 12145.996 C 10662.805 11802.791 10534.729 11472.794 10404.683 11143.7 C 10337.814 10979.851 10271.109 10816.166 10201.287 10653.629 C 10133.187 10490.354 10059.508 10329.376 9987.47 10165.855 C 10045.97 10519.563 10165.924 10857.272 10295.888 11187.35 C 10429.953 11516.444 10578.214 11839.712 10762.986 12145.996" style="fill: rgb(180, 171, 154); fill-opacity: 1; fill-rule: nonzero; stroke: none;" id="path154"/>
      <path d="M 13419.612 10198.92 C 13501.168 9966.56 13566.561 9731.247 13628.916 9495.36 C 13689.55 9259.144 13743.373 9021.698 13794.16 8783.677 L 13715.559 8871.058 C 13887.778 8824.618 14076.487 8800.66 14258.223 8779.821 C 14349.953 8769.565 14441.929 8766.529 14533.576 8764.806 L 14671.005 8764.15 L 14807.534 8773.257 C 14988.859 8790.158 15167.232 8826.177 15337.563 8893.046 C 15505.023 8965.413 15656.892 9071.747 15795.717 9208.849 C 15707.926 9036.548 15569.43 8884.514 15398.688 8775.39 C 15226.47 8669.548 15030.868 8606.618 14833.789 8571.173 C 14635.807 8535.154 14435.364 8534.087 14237.957 8549.513 C 14038.991 8563.542 13848.394 8600.628 13651.644 8655.601 L 13583.626 8674.553 L 13573.042 8742.981 C 13535.874 8983.546 13501.578 9224.602 13474.256 9466.889 C 13448.658 9709.505 13426.013 9952.694 13419.612 10198.92" style="fill: rgb(180, 171, 154); fill-opacity: 1; fill-rule: nonzero; stroke: none;" id="path156"/>
      <path d="M 14046.622 4918.65 C 14013.885 4985.601 14007.731 5051.814 14008.141 5117.862 C 14011.259 5183.829 14021.023 5249.631 14057.616 5314.694 C 14090.6 5247.662 14096.671 5181.449 14096.097 5115.401 C 14092.815 5049.434 14083.052 4983.714 14046.622 4918.65" style="fill: rgb(184, 112, 67); fill-opacity: 1; fill-rule: nonzero; stroke: none;" id="path158"/>
      <path d="M 13892.618 5336.683 C 13950.052 5361.544 14002.727 5360.232 14054.335 5352.437 C 14105.451 5342.099 14155.417 5325.115 14200.626 5281.63 C 14143.193 5256.523 14090.436 5257.918 14038.909 5265.876 C 13987.793 5276.46 13937.827 5293.445 13892.618 5336.683" style="fill: rgb(184, 112, 67); fill-opacity: 1; fill-rule: nonzero; stroke: none;" id="path160"/>
      <path d="M 14139.664 12890.826 C 14139.664 12890.826 13378.671 11856.779 11793.589 11864.327 L 11292.112 10779.9 L 11325.506 12007.171 C 11325.506 12007.171 10831.824 12523.335 11043.836 13204.085 C 11255.765 13884.755 14139.664 12890.826 14139.664 12890.826 L 14139.664 12890.826" style="fill: rgb(184, 112, 67); fill-opacity: 1; fill-rule: nonzero; stroke: none;" id="path162"/>
      <path d="M 15042.601 14093.156 C 15099.131 14056.398 15172.236 14022.103 15266.099 13990.842 C 15733.033 13835.279 15866.36 13897.553 15886.544 13993.468 C 15905.662 14082.08 15828.126 14199.162 15828.126 14199.162 C 16157.794 14360.139 16981.308 15514.88 16249.934 15588.313 C 16219.987 15591.349 16190.942 15592.662 16163.21 15592.825 C 15504.858 15598.652 15343.798 14881.143 15343.798 14881.143 C 15343.798 14881.143 15108.65 14738.954 14975.732 14558.613 C 14865.623 14409.533 14825.091 14235.263 15042.601 14093.156 L 15042.601 14093.156" style="fill: rgb(208, 141, 89); fill-opacity: 1; fill-rule: nonzero; stroke: none;" id="path164"/>
      <path d="M 16155.333 15592.825 C 15939.875 15592.825 15778.242 15515.127 15658.287 15411.008 C 15529.964 14973.201 15400.165 14653.05 15400.165 14653.05 C 15400.165 14653.05 15392.698 14652.804 15378.586 14652.311 L 15361.11 14252.493 C 15357.172 14157.399 15341.911 14064.274 15316.148 13974.597 C 15494.027 13918.394 15619.314 13896.323 15706.367 13896.323 C 15828.126 13896.323 15875.222 13939.563 15886.544 13993.468 C 15884.822 13993.386 15883.181 13993.386 15881.457 13993.386 C 15828.044 13993.386 15773.647 14010.698 15753.299 14072.561 C 15706.696 14210.976 15669.118 14351.852 15930.111 14610.139 C 16178.634 14856.037 16249.606 15191.284 16077.305 15191.284 C 16068.609 15191.284 16059.255 15190.463 16049.328 15188.659 C 16040.877 15187.182 16033.246 15186.525 16026.272 15186.525 C 15892.78 15186.525 16027.831 15450.063 16163.21 15592.825 C 16160.584 15592.825 16157.959 15592.825 16155.333 15592.825 L 16155.333 15592.825" style="fill: rgb(201, 124, 75); fill-opacity: 1; fill-rule: nonzero; stroke: none;" id="path166"/>
      <path d="M 15440.204 14184.639 C 15414.031 14304.347 15420.021 14427.501 15442.173 14547.373 C 15463.916 14667.819 15508.304 14784.737 15570.333 14893.779 C 15636.217 15000.522 15724.008 15096.929 15830.67 15165.521 C 15936.347 15236.328 16063.685 15267.424 16183.885 15267.26 C 16080.588 15200.144 15987.135 15142.137 15910.339 15063.535 C 15834.772 14985.59 15767.575 14902.558 15712.439 14808.695 C 15600.936 14620.887 15524.386 14410.845 15440.204 14184.639" style="fill: rgb(184, 112, 67); fill-opacity: 1; fill-rule: nonzero; stroke: none;" id="path168"/>
      <path d="M 15858.073 16274.315 C 15730.326 15467.211 15400.165 14653.05 15400.165 14653.05 C 15400.165 14653.05 11527.426 14520.543 11508.391 14577.238 C 11497.314 14612.191 11340.439 15224.513 11218.106 15705.396 C 11138.273 16023.166 11072.389 16284.407 11072.389 16284.407 L 10680.774 16714.42 C 10680.774 16714.42 8949.155 18007.822 11120.058 19214.499 L 11121.781 19216.14 L 10871.617 18430.697 C 10871.617 18430.697 11250.104 19152.963 11844.295 19540.475 L 11677.574 19017.42 L 12087.567 19515.369 C 12087.567 19515.369 12584.284 18785.389 12603.319 18728.694 L 12604.959 18727.053 C 12605.041 18732.058 12603.482 18743.627 12600.447 18761.923 L 12600.529 18765.205 C 12579.36 18906.492 12496.657 19373.426 12496.657 19373.426 L 12499.938 19371.785 C 12537.927 19361.282 12938.895 19231.072 13410.751 18967.289 C 13539.074 18895.743 13675.438 18814.188 13808.355 18722.786 C 13951.2 18624.575 14093.799 18513.072 14226.225 18391.805 L 13856.354 19058.608 C 13856.354 19058.608 13857.994 19056.885 13861.276 19056.885 C 13894.259 19039.819 13925.519 19024.477 13956.698 19007.41 C 13994.603 18986.981 14042.274 18961.382 14098.23 18930.696 C 14136.054 18911.907 14170.596 18889.918 14205.056 18867.847 C 14673.549 18597.417 15486.316 18063.45 15782.837 17482.223 C 15829.603 17388.688 15862.833 17282.108 15880.965 17164.124 C 15925.271 16901.57 15907.385 16588.558 15858.073 16274.315 L 15858.073 16274.315" style="fill: rgb(191, 182, 178); fill-opacity: 1; fill-rule: nonzero; stroke: none;" id="path170"/>
      <path d="M 14181.59 16006.921 C 14181.59 16006.921 14983.28 15622.281 15688.316 15999.947 C 15688.316 15999.947 15133.591 15247.076 14298.837 15522.839 C 13464.082 15798.601 13146.557 16424.873 13148.444 16549.176 C 13150.249 16673.478 14533.822 16747.813 14533.822 16747.813 C 14533.822 16747.813 15176.913 16400.259 15880.965 17164.124 C 15925.271 16901.57 15907.385 16588.558 15858.073 16274.315 C 15448.901 16066.406 14828.292 15909.694 14218.267 16362.845 C 13171.91 17140.658 14181.59 16006.921 14181.59 16006.921 L 14181.59 16006.921" style="fill: rgb(231, 212, 207); fill-opacity: 1; fill-rule: nonzero; stroke: none;" id="path172"/>
      <path d="M 10801.712 15109.728 C 10404.354 15261.353 10209.409 15532.766 10130.972 15838.888 C 10039.981 16191.693 10103.814 16591.923 10191.276 16903.95 C 10278.74 17217.619 10389.751 17441.445 10389.751 17441.445 L 10978.362 17338.393 C 10978.362 17338.393 12115.544 14608.088 10801.712 15109.728 L 10801.712 15109.728" style="fill: rgb(191, 182, 178); fill-opacity: 1; fill-rule: nonzero; stroke: none;" id="path174"/>
      <path d="M 14519.792 16809.349 C 14501.413 15544.745 12577.145 15344.057 11218.106 15705.396 C 11138.273 16023.166 11072.389 16284.407 11072.389 16284.407 L 10680.774 16714.42 C 10680.774 16714.42 8949.155 18007.822 11120.058 19214.499 C 11084.695 19173.557 10415.185 18389.262 10678.887 17720.736 C 10947.347 17032.191 11412.722 16886.146 11412.722 16886.146 L 11476.064 17024.479 C 11476.064 17024.479 10196.036 18031.123 11844.295 19540.475 L 11677.574 19017.42 C 11677.574 19017.42 11235.663 17588.312 12579.853 17008.397 C 13922.483 16430.206 12783.25 17083.306 12783.25 17083.306 C 12783.25 17083.306 11581.496 17888.278 12087.567 19515.369 C 12087.567 19515.369 12374.816 17835.275 13115.38 17466.388 L 12600.447 18761.923 L 12600.529 18765.205 C 12579.36 18906.492 12496.657 19373.426 12496.657 19373.426 L 12499.938 19371.785 C 12550.644 19321.325 13378.998 18495.268 13872.926 17238.131 C 13872.926 17238.131 13828.128 18256.672 13410.751 18967.289 C 13539.074 18895.743 13675.438 18814.188 13808.355 18722.786 C 14160.586 18319.767 14532.591 17684.471 14519.792 16809.349 L 14519.792 16809.349" style="fill: rgb(231, 212, 207); fill-opacity: 1; fill-rule: nonzero; stroke: none;" id="path176"/>
      <path d="M 11000.678 14058.122 C 10938.568 14031.784 10860.705 14010.616 10762.822 13996.011 C 10276.032 13923.645 10155.504 14007.99 10152.222 14105.955 C 10148.694 14196.536 10245.346 14298.44 10245.346 14298.44 C 9948.415 14513.979 9337.142 15793.761 10070.092 15739.61 C 10100.122 15737.394 10129.002 15733.702 10156.325 15729.025 C 10805.815 15620.886 10840.357 14886.394 10840.357 14886.394 C 10840.357 14886.394 11047.282 14705.643 11147.052 14505.035 C 11229.674 14339.135 11239.438 14160.517 11000.678 14058.122 L 11000.678 14058.122" style="fill: rgb(208, 141, 89); fill-opacity: 1; fill-rule: nonzero; stroke: none;" id="path178"/>
      <path d="M 10156.325 15729.025 C 10260.772 15571.329 10345.609 15303.853 10235.255 15303.853 C 10224.835 15303.853 10212.691 15306.233 10198.661 15311.319 C 10181.431 15317.555 10165.76 15320.591 10151.565 15320.591 C 10003.059 15320.591 10022.012 14994.37 10215.973 14720.904 C 10304.913 14595.453 10345.854 14499.292 10358.244 14420.527 C 10425.687 14618.343 10506.176 14774.809 10552.698 14858.005 C 10576.491 14900.752 10591.752 14923.808 10591.752 14923.808 L 10618.5 15467.129 C 10518.729 15588.232 10374.325 15690.462 10165.432 15727.466 C 10162.396 15728.04 10159.36 15728.533 10156.325 15729.025 Z M 10280.544 14136.97 C 10256.997 14110.878 10225.491 14101.689 10192.918 14101.689 C 10179.38 14101.689 10165.595 14103.329 10152.222 14105.955 C 10153.698 14060.665 10180.282 14018.329 10256.423 13992.975 C 10262.74 14041.876 10270.945 14090.038 10280.544 14136.97 L 10280.544 14136.97" style="fill: rgb(201, 124, 75); fill-opacity: 1; fill-rule: nonzero; stroke: none;" id="path180"/>
      <path d="M 10624.9 14217.048 C 10581.086 14454.413 10542.031 14674.465 10464.66 14878.764 C 10426.59 14980.749 10374.818 15074.201 10313.856 15164.044 C 10251.828 15254.707 10169.78 15327.975 10079.692 15411.992 C 10198.086 15391.399 10318.122 15338.724 10409.934 15250.686 C 10503.141 15164.701 10572.881 15054.592 10619.402 14938.003 C 10661.575 14819.853 10685.123 14697.028 10685.697 14574.613 C 10686.763 14452.771 10671.339 14330.438 10624.9 14217.048" style="fill: rgb(184, 112, 67); fill-opacity: 1; fill-rule: nonzero; stroke: none;" id="path182"/>
      <path d="M 15381.048 14709.746 L 15361.11 14252.493 C 15353.479 14070.264 15304.498 13895.257 15219.331 13737.314 C 15186.922 13676.517 15147.95 13617.361 15104.055 13563.291 C 13510.112 11567.477 10420.108 12587.25 10261.346 13526.123 C 10250.679 13592.664 10245.101 13659.041 10242.721 13723.694 C 10226.803 14224.597 10458.999 14690.3 10552.698 14858.005 C 10576.491 14900.752 10591.752 14923.808 10591.752 14923.808 L 10669.369 16500.767 L 10680.774 16714.42 C 11499.037 17801.635 14835.676 16871.049 14835.676 16871.049 C 13665.099 15716.144 15381.048 14709.746 15381.048 14709.746 L 15381.048 14709.746" style="fill: rgb(208, 141, 89); fill-opacity: 1; fill-rule: nonzero; stroke: none;" id="path184"/>
      <path d="M 12570.581 15978.696 C 12823.781 15854.394 13077.555 15767.998 13271.517 15712.124 C 13311.31 15700.473 13348.477 15690.217 13382.773 15681.274 C 13450.873 15663.387 13520.449 15654.772 13590.354 15655.593 C 13602.661 15655.346 13615.46 15655.839 13627.85 15656.823 C 13678.966 15659.367 13729.835 15667.489 13780.048 15681.11 C 13795.802 15684.966 13811.719 15689.724 13827.144 15694.812 C 13827.144 15694.812 13831.329 15757.742 13811.39 15845.533 C 13786.449 15955.149 13723.272 16104.065 13565.985 16217.374 C 13548.838 16229.763 13530.46 16242.153 13510.276 16253.721 C 13464.165 16280.797 13411.49 16305.166 13350.692 16324.938 C 13280.131 16348.404 13214.001 16358.578 13152.711 16358.414 C 12772.091 16359.809 12570.581 15978.696 12570.581 15978.696" style="fill: rgb(191, 182, 178); fill-opacity: 1; fill-rule: nonzero; stroke: none;" id="path186"/>
      <path d="M 13627.85 15656.823 C 13678.966 15659.367 13729.835 15667.489 13780.048 15681.11 C 13793.668 15732.717 13804.827 15787.772 13811.39 15845.533 C 13786.449 15955.149 13723.272 16104.065 13565.985 16217.374 C 13630.557 16056.97 13674.042 15855.789 13627.85 15656.823" style="fill: rgb(231, 212, 207); fill-opacity: 1; fill-rule: nonzero; stroke: none;" id="path188"/>
      <path d="M 13152.711 16358.414 C 13197.92 16225.333 13259.865 15995.107 13271.517 15712.124 C 13311.31 15700.473 13348.477 15690.217 13382.773 15681.274 C 13450.873 15663.387 13520.449 15654.772 13590.354 15655.593 C 13609.308 15819.934 13605.04 16039.74 13510.276 16253.721 C 13464.165 16280.797 13411.49 16305.166 13350.692 16324.938 C 13280.131 16348.404 13214.001 16358.578 13152.711 16358.414" style="fill: rgb(231, 212, 207); fill-opacity: 1; fill-rule: nonzero; stroke: none;" id="path190"/>
      <path d="M 13254.779 15542.612 C 13041.454 15542.612 12865.872 15372.363 12860.539 15157.891 C 12855.041 14940.053 13027.26 14759.056 13245.179 14753.558 C 13248.46 14753.476 13251.825 14753.476 13255.188 14753.476 C 13468.513 14753.476 13644.095 14923.726 13649.428 15138.199 C 13654.844 15356.118 13482.707 15537.116 13264.788 15542.53 C 13261.424 15542.612 13258.142 15542.612 13254.779 15542.612 L 13254.779 15542.612" style="fill: rgb(192, 111, 66); fill-opacity: 1; fill-rule: nonzero; stroke: none;" id="path192"/>
      <path d="M 13513.393 15041.629 C 13509.783 14897.553 13390.076 14783.67 13246 14787.28 C 13101.923 14790.809 12988.041 14910.598 12991.569 15054.674 C 12995.18 15198.75 13114.887 15312.633 13258.963 15309.022 C 13403.038 15305.412 13517.004 15185.705 13513.393 15041.629" style="fill: rgb(27, 24, 31); fill-opacity: 1; fill-rule: nonzero; stroke: none;" id="path194"/>
      <path d="M 13221.467 15141.973 C 13220.401 15096.682 13182.823 15060.992 13137.614 15062.14 C 13092.406 15063.207 13056.633 15100.785 13057.781 15145.994 C 13058.848 15191.284 13096.426 15226.975 13141.716 15225.826 C 13186.925 15224.678 13222.616 15187.182 13221.467 15141.973" style="fill: rgb(255, 255, 255); fill-opacity: 1; fill-rule: nonzero; stroke: none;" id="path196"/>
      <path d="M 13274.224 15034.655 C 13273.65 15011.763 13254.614 14993.631 13231.724 14994.205 C 13208.832 14994.779 13190.699 15013.815 13191.273 15036.706 C 13191.848 15059.597 13210.883 15077.73 13233.774 15077.155 C 13256.665 15076.581 13274.798 15057.545 13274.224 15034.655" style="fill: rgb(255, 255, 255); fill-opacity: 1; fill-rule: nonzero; stroke: none;" id="path198"/>
      <path d="M 11736.975 13613.669 C 11869.154 13617.524 11971.222 13607.104 12076.654 13603.576 C 12128.754 13599.064 12180.527 13598.161 12234.924 13595.372 C 12289.978 13591.762 12345.607 13592.746 12413.706 13583.064 C 12373.666 13529.57 12318.858 13490.022 12258.143 13468.197 C 12197.839 13443.009 12132.036 13435.789 12067.546 13438.168 C 12003.139 13443.255 11939.47 13457.121 11882.282 13486.904 C 11825.341 13515.293 11772.256 13555.25 11736.975 13613.669" style="fill: rgb(184, 112, 67); fill-opacity: 1; fill-rule: nonzero; stroke: none;" id="path200"/>
      <path d="M 11692.095 15891.48 C 11483.53 15801.719 11276.113 15742.481 11117.843 15705.314 C 11085.434 15697.519 11055.159 15690.791 11027.262 15684.966 C 10971.798 15673.315 10915.431 15669.213 10859.31 15672.658 C 10849.383 15672.905 10839.126 15673.889 10829.28 15675.12 C 10788.257 15679.222 10747.643 15687.837 10707.932 15700.801 C 10695.297 15704.575 10682.744 15708.924 10670.518 15713.682 C 10670.518 15713.682 10669.698 15764.47 10689.307 15834.211 C 10713.757 15921.346 10770.453 16038.51 10901.4 16123.347 C 10915.677 16132.537 10931.02 16141.808 10947.676 16150.259 C 10985.91 16170.196 11029.149 16187.672 11078.788 16201.128 C 11136.467 16217.21 11190.045 16222.707 11239.355 16220.082 C 11545.394 16205.97 11692.095 15891.48 11692.095 15891.48" style="fill: rgb(191, 182, 178); fill-opacity: 1; fill-rule: nonzero; stroke: none;" id="path202"/>
      <path d="M 10829.28 15675.12 C 10788.257 15679.222 10747.643 15687.837 10707.932 15700.801 C 10698.989 15742.81 10692.179 15787.525 10689.307 15834.211 C 10713.757 15921.346 10770.453 16038.51 10901.4 16123.347 C 10843.065 15996.911 10800.071 15836.918 10829.28 15675.12" style="fill: rgb(231, 212, 207); fill-opacity: 1; fill-rule: nonzero; stroke: none;" id="path204"/>
      <path d="M 11239.355 16220.082 C 11197.676 16114.896 11138.6 15932.34 11117.843 15705.314 C 11085.434 15697.519 11055.159 15690.791 11027.262 15684.966 C 10971.798 15673.315 10915.431 15669.213 10859.31 15672.658 C 10850.695 15805.494 10862.921 15982.061 10947.676 16150.259 C 10985.91 16170.196 11029.149 16187.672 11078.788 16201.128 C 11136.467 16217.21 11190.045 16222.707 11239.355 16220.082" style="fill: rgb(231, 212, 207); fill-opacity: 1; fill-rule: nonzero; stroke: none;" id="path206"/>
      <path d="M 11223.849 15587.329 C 11031.775 15587.329 10873.586 15434.063 10868.828 15240.84 C 10863.904 15044.665 11018.975 14881.636 11215.233 14876.712 C 11218.187 14876.712 11221.223 14876.63 11224.258 14876.63 C 11416.333 14876.63 11574.521 15029.978 11579.28 15223.119 C 11584.203 15419.376 11429.133 15582.405 11232.874 15587.247 C 11229.92 15587.329 11226.885 15587.329 11223.849 15587.329 L 11223.849 15587.329" style="fill: rgb(192, 111, 66); fill-opacity: 1; fill-rule: nonzero; stroke: none;" id="path208"/>
      <path d="M 11456.783 15136.148 C 11453.5 15006.431 11345.69 14903.87 11215.972 14907.07 C 11086.172 14910.27 10983.613 15018.081 10986.813 15147.88 C 10990.094 15277.598 11097.906 15380.24 11227.705 15376.958 C 11357.422 15373.758 11459.982 15265.948 11456.783 15136.148" style="fill: rgb(27, 24, 31); fill-opacity: 1; fill-rule: nonzero; stroke: none;" id="path210"/>
      <path d="M 11193.901 15226.482 C 11192.916 15185.787 11159.031 15153.623 11118.335 15154.608 C 11077.64 15155.593 11045.395 15189.479 11046.461 15230.174 C 11047.446 15270.87 11081.332 15303.115 11122.028 15302.049 C 11162.723 15301.064 11194.886 15267.26 11193.901 15226.482" style="fill: rgb(255, 255, 255); fill-opacity: 1; fill-rule: nonzero; stroke: none;" id="path212"/>
      <path d="M 11241.325 15129.912 C 11240.832 15109.236 11223.684 15092.908 11203.091 15093.483 C 11182.496 15093.975 11166.169 15111.123 11166.661 15131.718 C 11167.235 15152.311 11184.302 15168.638 11204.978 15168.146 C 11225.572 15167.654 11241.899 15150.507 11241.325 15129.912" style="fill: rgb(255, 255, 255); fill-opacity: 1; fill-rule: nonzero; stroke: none;" id="path214"/>
      <path d="M 13856.354 19058.608 C 13856.354 19058.608 14846.916 18366.453 14835.84 16870.803 C 14835.84 16870.803 15758.221 18146.647 13856.354 19058.608 L 13856.354 19058.608" style="fill: rgb(231, 212, 207); fill-opacity: 1; fill-rule: nonzero; stroke: none;" id="path216"/>
      <path d="M 10468.516 16137.377 C 10435.862 15942.185 10293.673 15858.086 10130.972 15838.888 C 10039.981 16191.693 10103.814 16591.923 10191.276 16903.95 C 10345.198 16662.976 10504.864 16353.984 10468.516 16137.377" style="fill: rgb(231, 212, 207); fill-opacity: 1; fill-rule: nonzero; stroke: none;" id="path218"/>
      <path d="M 12319.679 17241.823 C 12273.487 17241.823 12227.457 17241.331 12181.757 17240.1 C 11889.339 17232.633 11609.473 17200.306 11364.807 17131.633 C 11285.138 17109.316 11208.998 17083.061 11137.617 17052.539 C 10948.824 16972.049 10791.703 16861.777 10680.774 16714.42 L 10680.774 16714.42 L 10669.369 16500.767 C 10887.617 16623.347 11521.764 16919.703 12535.63 16919.703 C 12911.982 16919.703 13340.682 16878.844 13819.759 16773.166 C 13819.759 16773.166 14430.606 15008.727 13916.576 13865.719 C 13633.348 13235.92 12859.308 12915.277 12065.003 12915.277 C 11417.973 12915.277 10757.489 13128.109 10338.143 13559.845 C 10338.143 13559.845 10783.826 12499.459 12459.324 12499.459 C 12497.395 12499.459 12536.121 12499.951 12575.505 12501.099 C 13882.362 12540.073 14750.838 13208.762 15219.331 13737.314 C 15304.498 13895.257 15353.479 14070.264 15361.11 14252.493 L 15381.048 14709.746 C 15381.048 14709.746 14425.847 15269.967 14426.914 16034.079 C 14427.324 16294.17 14538.417 16577.809 14835.676 16871.049 C 14835.676 16871.049 14716.87 16904.197 14518.562 16950.635 C 14105.778 17047.37 13349.051 17201.783 12602.499 17235.259 C 12507.897 17239.526 12413.296 17241.823 12319.679 17241.823 L 12319.679 17241.823" style="fill: rgb(201, 124, 75); fill-opacity: 1; fill-rule: nonzero; stroke: none;" id="path220"/>
      <path d="M 10927.246 14514.389 C 10954.896 14248.719 10602.008 13920.692 10242.721 13723.694 C 10226.803 14224.597 10458.999 14690.3 10552.615 14858.005 C 10730.906 14805.659 10906.816 14706.955 10927.246 14514.389" style="fill: rgb(233, 164, 119); fill-opacity: 1; fill-rule: nonzero; stroke: none;" id="path222"/>
      <path d="M 13059.587 13849.392 C 13057.946 13639.513 13005.845 13462.29 12916.495 13320.347 C 12673.469 12935.625 12154.271 12810.83 11625.473 12986.659 C 10901.647 13226.895 10997.971 13931.276 10997.971 13931.276 C 10997.971 13931.276 11199.399 13921.43 11505.19 13907.481 C 11914.527 13888.528 12510.358 13863.914 13059.587 13849.392" style="fill: rgb(27, 24, 31); fill-opacity: 1; fill-rule: nonzero; stroke: none;" id="path224"/>
      <path d="M 13059.587 13849.392 C 13057.946 13639.513 13005.845 13462.29 12916.495 13320.347 C 12622.847 13261.273 12267.661 13225.664 12027.917 13321.168 C 12005.518 13329.537 11985.006 13339.547 11964.494 13350.459 C 11722.863 13474.515 11581.823 13717.787 11505.19 13907.481 C 11914.527 13888.528 12510.358 13863.914 13059.587 13849.392" style="fill: rgb(255, 255, 255); fill-opacity: 1; fill-rule: nonzero; stroke: none;" id="path226"/>
      <path d="M 13059.587 13849.392 C 13057.946 13639.513 13005.845 13462.29 12916.495 13320.347 C 12622.847 13261.273 12267.661 13225.664 12027.917 13321.168 C 12005.518 13329.537 11985.006 13339.547 11964.494 13350.459 C 12676.916 13282.277 12634.497 13728.043 12634.497 13728.043 L 11505.19 13907.481 C 11914.527 13888.528 12510.358 13863.914 13059.587 13849.392" style="fill: rgb(231, 212, 207); fill-opacity: 1; fill-rule: nonzero; stroke: none;" id="path228"/>
      <path d="M 13343.39 13902.969 C 12133.021 13603.002 10839.126 13963.192 10839.126 13963.192 C 11004.043 14432.752 11407.636 14540.398 11407.636 14540.398 C 12252.974 14214.094 12743.21 14456.054 12743.21 14456.054 C 12773.24 14448.177 12802.039 14438.824 12829.606 14428.403 C 13110.703 14320.018 13261.424 14072.398 13317.463 13960.403 C 13335.021 13924.793 13343.39 13902.969 13343.39 13902.969" style="fill: rgb(191, 182, 178); fill-opacity: 1; fill-rule: nonzero; stroke: none;" id="path230"/>
      <path d="M 13292.602 13953.757 L 13144.506 14105.627 L 13227.785 13923.481 C 13062.541 13876.468 12825.505 13880.981 12825.505 13880.981 L 12713.837 14016.359 L 12706.125 13864.899 L 12593.062 13974.268 L 12601.103 13844.141 C 11857.012 13789.415 11507.16 13907.154 11507.16 13907.154 L 11567.219 14070.921 L 11607.34 13909.533 L 11670.435 14054.593 L 11694.311 13871.544 L 11722.453 14059.106 C 12507.404 14055.249 12754.861 14303.28 12829.606 14428.403 C 13110.703 14320.018 13261.424 14072.398 13317.463 13960.403 L 13292.602 13953.757" style="fill: rgb(231, 212, 207); fill-opacity: 1; fill-rule: nonzero; stroke: none;" id="path232"/>
      <path d="M 12825.012 14603.74 C 12815.577 14417.983 12476.883 14284.081 12068.531 14304.839 C 11660.179 14325.515 11336.747 14492.893 11346.182 14678.731 C 11355.617 14864.488 11694.311 14998.389 12102.662 14977.631 C 12511.014 14956.955 12834.366 14789.577 12825.012 14603.74" style="fill: rgb(233, 164, 119); fill-opacity: 1; fill-rule: nonzero; stroke: none;" id="path234"/>
      <path d="M 12825.176 14614.816 C 12845.36 14537.362 12792.931 14453.51 12732.954 14402.805 C 12671.254 14349.719 12599.381 14312.388 12525.21 14285.886 C 12376.702 14230.996 12219.171 14216.884 12064.346 14222.135 C 11909.85 14232.39 11754.534 14262.339 11612.181 14331.915 C 11541.127 14365.801 11473.356 14410.189 11417.317 14469.263 C 11362.838 14525.958 11319.106 14614.734 11347.167 14689.725 C 11359.146 14613.257 11411.492 14565.751 11469.745 14531.537 C 11527.426 14495.928 11593.146 14472.381 11659.359 14452.361 C 11792.85 14414.373 11932.578 14394.189 12072.715 14387.544 C 12212.854 14379.749 12353.894 14385.738 12490.667 14410.025 C 12558.52 14423.234 12626.292 14440.054 12687.336 14469.673 C 12748.708 14497.898 12805.731 14539.824 12825.176 14614.816" style="fill: rgb(184, 112, 67); fill-opacity: 1; fill-rule: nonzero; stroke: none;" id="path236"/>
    </g>
  </g>
</svg>